<?xml version="1.0" encoding="UTF-8"?>
<svg xmlns="http://www.w3.org/2000/svg" version="1.1" viewBox="0 0 396.8 209.4">
  <defs>
    <style>
      .cls-1 {
        fill: #1d1d1b;
      }
    </style>
  </defs>
  <!-- Generator: Adobe Illustrator 28.7.4, SVG Export Plug-In . SVG Version: 1.2.0 Build 166)  -->
  <g>
    <g id="Ebene_1">
      <g>
        <path class="cls-1" d="M86.6,87.3h-29.6c0-5-3-7.7-8.6-7.7s-7.9,2.1-7.9,5.4,3.4,5.2,14.3,7.7c17.6,4.3,33.2,9.6,33.2,29s-14.3,28.7-38.9,28.7-39-11.2-39-30.1h30.5c0,5.8,2.8,8.6,9.6,8.6s8.2-2.2,8.2-5.5-3.7-5.5-14-8.2c-17.2-4.7-32.3-9.5-32.3-28.1s13.4-28.2,38-28.2,36.5,9.6,36.5,28.4Z"/>
        <path class="cls-1" d="M151.9,148.5v-33.2h-25.1v33.2h-27.8V60.9h27.8v31.1h25.1v-31.1h27.8v87.6h-27.8Z"/>
        <path class="cls-1" d="M195.2,148.5V60.9h27.8v87.6h-27.8Z"/>
        <path class="cls-1" d="M266.4,84.5v12.8h34.1v23.4h-34.1v27.8h-27.8V60.9h64.1v23.6h-36.3Z"/>
        <path class="cls-1" d="M361.5,84.2v64.3h-27.8v-64.3h-25.2v-23.2h78.2v23.2h-25.2Z"/>
      </g>
    </g>
  </g>
</svg>